#!OML:ASF E:\inclinewalkrobotboard\Project 1\Capture day 1\Session 1\subject1.ASF
:FULLY-SPECIFIED
:DEGREES
82
root 7.6501 11.0359 8.85509 -160.584 -54.9812 160.945
lowerback 20.1276 2.661 -6.44864
upperback 2.78046 2.03077 2.1064
thorax -8.55081 1.10701 5.46048
lowerneck -3.6393 5.50848 0.20246
upperneck -22.832 4.5099 -9.38013
head -6.06366 2.21355 -3.15113
rclavicle -7.15625e-014 -1.74931e-014
rhumerus -18.684 -32.8997 -77.8463
rradius 55.7746
rwrist -42.0778
rhand 10.4006 -22.3974
rfingers 7.12502
rthumb 35.5062 -48.8337
lclavicle -7.15625e-014 -1.74931e-014
lhumerus 13.633 16.988 57.4967
lradius 129.968
lwrist -31.7617
lhand -48.0967 -41.4471
lfingers 7.12502
lthumb -20.7613 -12.5377
rfemur -61.7396 -16.24 -11.2443
rtibia 82.5987
rfoot 143.93 6.56756
rtoes -37.8838
lfemur -50.8416 -4.09354 -25.4793
ltibia 72.4363
lfoot 0 0
ltoes 0
83
root 7.64521 11.0406 8.8554 -160.587 -54.9664 161.036
lowerback 20.0021 2.64852 -6.33195
upperback 2.72799 2.06216 2.20963
thorax -8.5452 1.124 5.49956
lowerneck -3.81819 5.43991 0.153477
upperneck -22.7885 4.44524 -9.19423
head -6.03066 2.16566 -3.07524
rclavicle 3.33958e-014 1.59028e-015
rhumerus -18.6809 -33.1936 -77.7459
rradius 55.5982
rwrist -42.0012
rhand 10.1629 -22.7683
rfingers 7.12502
rthumb 35.2808 -49.2583
lclavicle 3.33958e-014 1.59028e-015
lhumerus 13.7142 17.1548 57.2203
lradius 130.011
lwrist -31.7094
lhand -48.1205 -40.8151
lfingers 7.12502
lthumb -20.7842 -11.9083
rfemur -61.7057 -16.2124 -11.2099
rtibia 82.7151
rfoot 143.913 6.57614
rtoes -37.6334
lfemur -50.8994 -4.02149 -25.4339
ltibia 72.4918
lfoot 0 0
ltoes 0
84
root 7.64085 11.0456 8.85561 -160.518 -54.9234 161.082
lowerback 19.8333 2.64314 -6.25985
upperback 2.6863 2.09652 2.32411
thorax -8.50653 1.14259 5.57647
lowerneck -4.12742 5.37119 -0.272232
upperneck -22.6797 4.4186 -8.77429
head -5.97447 2.14732 -2.85827
rclavicle 3.49861e-014 -2.54444e-014
rhumerus -18.6912 -33.3763 -77.6288
rradius 55.4526
rwrist -42.016
rhand 9.68636 -23.0314
rfingers 7.12502
rthumb 34.8288 -49.6272
lclavicle 3.49861e-014 -2.54444e-014
lhumerus 13.7935 17.3305 57.0581
lradius 130.072
lwrist -31.8673
lhand -48.3304 -39.3797
lfingers 7.12502
lthumb -20.9858 -10.4951
rfemur -61.8029 -16.1999 -11.1646
rtibia 82.7965
rfoot 144.019 7.04418
rtoes -38.6245
lfemur -50.9844 -3.92935 -25.4158
ltibia 72.5475
lfoot 0 0
ltoes 0
85
root 7.63857 11.0518 8.8569 -160.334 -54.8519 160.951
lowerback 19.7091 2.63765 -6.27204
upperback 2.64214 2.10205 2.3577
thorax -8.49036 1.14933 5.62
lowerneck -4.29292 5.3676 -0.338208
upperneck -22.6011 4.44033 -8.64886
head -5.92703 2.14879 -2.8016
rclavicle -2.3059e-014 3.33958e-014
rhumerus -18.8504 -33.6213 -77.5873
rradius 55.4327
rwrist -41.9432
rhand 9.63966 -23.2295
rfingers 7.12502
rthumb 34.7845 -49.8356
lclavicle -2.3059e-014 3.33958e-014
lhumerus 13.8969 17.4784 56.8107
lradius 130.034
lwrist -32.0069
lhand -48.613 -39.6737
lfingers 7.12502
lthumb -21.2574 -10.8194
rfemur -61.9293 -16.2544 -11.224
rtibia 82.8954
rfoot 144.22 7.49645
rtoes -39.6594
lfemur -51.0148 -3.82985 -25.5203
ltibia 72.6387
lfoot 0 0
ltoes 0
86
root 7.63768 11.0585 8.85754 -160.01 -54.7985 160.629
lowerback 19.6096 2.64673 -6.3464
upperback 2.6069 2.10353 2.29949
thorax -8.47558 1.15405 5.59853
lowerneck -4.12041 5.38862 -0.369186
upperneck -22.8729 4.49808 -8.33077
head -6.05182 2.1638 -2.70807
rclavicle 2.46493e-014 -6.52014e-014
rhumerus -19.0558 -33.8664 -77.608
rradius 55.3581
rwrist -42.2078
rhand 9.45555 -23.1774
rfingers 7.12502
rthumb 34.6098 -49.8237
lclavicle 2.46493e-014 -6.52014e-014
lhumerus 14.1049 17.4676 56.5022
lradius 129.897
lwrist -32.0363
lhand -48.6341 -40.8579
lfingers 7.12502
lthumb -21.2776 -12.0059
rfemur -61.8897 -16.3057 -11.4658
rtibia 83.0494
rfoot 144.264 7.39695
rtoes -39.3882
lfemur -50.9996 -3.79261 -25.7383
ltibia 72.7927
lfoot 0 0
ltoes 0
87
root 7.63815 11.0656 8.85758 -159.836 -54.7908 160.461
lowerback 19.5612 2.50963 -6.41337
upperback 2.5971 1.92036 2.39385
thorax -8.43867 1.06949 5.79281
lowerneck -3.98166 5.5292 -0.414913
upperneck -23.1527 4.63557 -8.39627
head -6.15921 2.23518 -2.73598
rclavicle -3.97569e-015 3.33958e-014
rhumerus -19.0018 -33.4785 -77.7161
rradius 55.1017
rwrist -42.7501
rhand 9.00576 -22.6146
rfingers 7.12502
rthumb 34.1827 -49.3576
lclavicle -3.97569e-015 3.33958e-014
lhumerus 13.9503 17.9594 56.1099
lradius 129.862
lwrist -32.0354
lhand -48.2973 -41.0751
lfingers 7.12502
lthumb -20.954 -12.187
rfemur -61.7229 -16.3188 -11.6153
rtibia 83.2773
rfoot 144.275 7.39048
rtoes -39.4548
lfemur -50.9587 -3.72164 -25.8629
ltibia 72.984
lfoot 0 0
ltoes 0
88
root 7.64127 11.0726 8.85842 -159.868 -54.731 160.526
lowerback 19.5897 2.5658 -6.31144
upperback 2.57042 2.01838 2.42718
thorax -8.49617 1.11707 5.74363
lowerneck -3.86383 5.52751 -0.0160003
upperneck -23.3365 4.57112 -8.65894
head -6.21736 2.18892 -2.89198
rclavicle -3.73715e-014 3.81667e-014
rhumerus -19.1343 -33.8442 -77.6434
rradius 54.9842
rwrist -42.9903
rhand 9.05665 -22.7
rfingers 7.12502
rthumb 34.2311 -49.4322
lclavicle -3.73715e-014 3.81667e-014
lhumerus 14.2674 18.0782 55.9184
lradius 129.747
lwrist -32
lhand -48.1265 -40.3313
lfingers 7.12502
lthumb -20.7899 -11.4251
rfemur -61.6091 -15.1346 -11.8634
rtibia 83.5194
rfoot 144.186 7.29803
rtoes -39.3188
lfemur -50.9483 -3.54403 -25.8611
ltibia 73.1325
lfoot 0 0
ltoes 0
89
root 7.643 11.0801 8.85807 -159.635 -54.816 160.241
lowerback 19.6516 2.54623 -6.30441
upperback 2.53858 1.99641 2.48508
thorax -8.56372 1.11119 5.80958
lowerneck -3.81215 5.5157 -0.18833
upperneck -23.4181 4.55908 -8.54902
head -6.26312 2.19009 -2.83112
rclavicle 2.3059e-014 7.95139e-015
rhumerus -19.2159 -34.1824 -77.4526
rradius 54.9309
rwrist -43.1487
rhand 9.28012 -23.6742
rfingers 7.12502
rthumb 34.4432 -50.3585
lclavicle 2.3059e-014 7.95139e-015
lhumerus 14.5412 18.233 55.8409
lradius 129.561
lwrist -31.9807
lhand -48.2055 -39.7354
lfingers 7.12502
lthumb -20.8659 -10.8375
rfemur -61.4136 -15.2635 -12.0217
rtibia 83.5995
rfoot 144.176 7.49808
rtoes -39.9326
lfemur -50.9254 -3.66204 -25.9808
ltibia 73.2349
lfoot 0 0
ltoes 0
90
root 7.64417 11.0875 8.85713 -159.277 -54.8968 159.84
lowerback 19.6617 2.53959 -6.35891
upperback 2.50352 1.98196 2.5326
thorax -8.60944 1.11082 5.8979
lowerneck -3.77807 5.47859 -0.482681
upperneck -23.434 4.5415 -8.32072
head -6.29332 2.19222 -2.70975
rclavicle 8.66701e-014 7.63333e-014
rhumerus -19.3367 -34.4879 -77.1727
rradius 54.8365
rwrist -43.4795
rhand 9.36266 -23.9576
rfingers 7.12502
rthumb 34.5216 -50.624
lclavicle 8.66701e-014 7.63333e-014
lhumerus 14.8272 18.2721 55.7985
lradius 129.362
lwrist -31.9009
lhand -48.0183 -39.8145
lfingers 7.12502
lthumb -20.686 -10.897
rfemur -61.2499 -15.4778 -12.2164
rtibia 83.6067
rfoot 144.122 7.73161
rtoes -40.5919
lfemur -50.9377 -3.84291 -26.1596
ltibia 73.335
lfoot 0 0
ltoes 0
91
root 7.64599 11.0958 8.85646 -159.243 -54.9835 159.77
lowerback 19.7281 2.54219 -6.20062
upperback 2.48143 2.01841 2.56508
thorax -8.67133 1.12636 5.83183
lowerneck -3.78503 5.43864 -0.484873
upperneck -23.3782 4.52491 -8.17949
head -6.27925 2.17722 -2.66211
rclavicle -1.41535e-013 -7.15625e-014
rhumerus -19.4716 -34.8089 -76.9184
rradius 54.6169
rwrist -43.7442
rhand 9.50088 -23.4581
rfingers 7.12502
rthumb 34.6528 -50.0945
lclavicle -1.41535e-013 -7.15625e-014
lhumerus 15.1634 18.2458 55.6392
lradius 129.163
lwrist -31.7909
lhand -47.7298 -39.2227
lfingers 7.12502
lthumb -20.4088 -10.2752
rfemur -61.1097 -15.6212 -12.1987
rtibia 83.6643
rfoot 144.129 7.77717
rtoes -40.6669
lfemur -50.8962 -3.94226 -26.1541
ltibia 73.4194
lfoot 0 0
ltoes 0
92
root 7.64767 11.104 8.85457 -159.353 -55.0444 159.842
lowerback 19.803 2.53131 -6.00188
upperback 2.48456 2.04288 2.59037
thorax -8.70637 1.13188 5.73764
lowerneck -3.78186 5.44863 -0.305822
upperneck -23.3749 4.54062 -8.21542
head -6.27012 2.17323 -2.70398
rclavicle 4.21423e-014 5.88403e-014
rhumerus -19.5305 -35.1232 -76.81
rradius 54.456
rwrist -43.7229
rhand 9.72356 -23.692
rfingers 7.12502
rthumb 34.8641 -50.2797
lclavicle 4.21423e-014 5.88403e-014
lhumerus 15.5251 18.4764 55.3378
lradius 128.9
lwrist -31.5558
lhand -47.342 -38.6975
lfingers 7.12502
lthumb -20.036 -9.71054
rfemur -61.0063 -15.7829 -12.076
rtibia 83.7555
rfoot 144.218 7.91391
rtoes -40.9894
lfemur -50.8241 -3.95472 -26.0764
ltibia 73.5043
lfoot 0 0
ltoes 0
93
root 7.64836 11.1113 8.8513 -159.327 -55.0982 159.808
lowerback 19.8051 2.50305 -5.92463
upperback 2.48864 2.02582 2.63954
thorax -8.69975 1.12132 5.75238
lowerneck -3.67744 5.49989 -0.0960057
upperneck -23.4668 4.57636 -8.38533
head -6.30256 2.18639 -2.79966
rclavicle -6.36111e-015 -2.38542e-014
rhumerus -19.5378 -35.389 -76.7788
rradius 54.3973
rwrist -43.6299
rhand 9.74117 -24.4176
rfingers 7.12502
rthumb 34.8808 -51.0014
lclavicle -6.36111e-015 -2.38542e-014
lhumerus 15.8209 18.7579 55.0218
lradius 128.633
lwrist -31.3109
lhand -47.0291 -39.1106
lfingers 7.12502
lthumb -19.7353 -10.0925
rfemur -60.9561 -16.0459 -11.993
rtibia 83.8447
rfoot 144.4 8.36707
rtoes -42.0014
lfemur -50.7823 -3.99043 -26.0568
ltibia 73.6077
lfoot 0 0
ltoes 0
94
root 7.64912 11.1179 8.84798 -159.244 -55.1622 159.707
lowerback 19.8037 2.49594 -5.88195
upperback 2.50076 2.03062 2.70631
thorax -8.68744 1.12218 5.80068
lowerneck -3.5553 5.50969 0.0997013
upperneck -23.585 4.55273 -8.54426
head -6.34997 2.17121 -2.88876
rclavicle 1.03368e-014 7.15625e-014
rhumerus -19.5095 -35.5575 -76.6778
rradius 54.2839
rwrist -43.7134
rhand 9.44976 -24.5791
rfingers 7.12502
rthumb 34.6043 -51.2266
lclavicle 1.03368e-014 7.15625e-014
lhumerus 16.13 18.82 54.8621
lradius 128.421
lwrist -31.3134
lhand -47.1797 -39.0511
lfingers 7.12502
lthumb -19.8801 -10.0479
rfemur -60.8637 -16.2837 -11.9711
rtibia 83.8976
rfoot 144.509 8.75061
rtoes -42.8189
lfemur -50.7135 -4.05495 -26.083
ltibia 73.7141
lfoot 0 0
ltoes 0
95
root 7.65023 11.1234 8.8463 -159.287 -55.2141 159.697
lowerback 19.8731 2.51532 -5.77338
upperback 2.5307 2.08031 2.79769
thorax -8.69929 1.14178 5.82537
lowerneck -3.62189 5.49595 0.060016
upperneck -23.5757 4.53779 -8.50965
head -6.33899 2.16189 -2.86836
rclavicle -2.22639e-014 -9.54166e-015
rhumerus -19.4683 -35.6338 -76.4917
rradius 54.18
rwrist -43.8828
rhand 9.15553 -24.1945
rfingers 7.12502
rthumb 34.325 -50.9055
lclavicle -2.22639e-014 -9.54166e-015
lhumerus 16.4806 18.8998 54.8015
lradius 128.212
lwrist -31.4064
lhand -47.3316 -38.5472
lfingers 7.12502
lthumb -20.026 -9.55915
rfemur -60.6853 -16.3588 -11.9518
rtibia 83.9749
rfoot 144.486 8.82923
rtoes -43.049
lfemur -50.5945 -4.07624 -26.0705
ltibia 73.803
lfoot 0 0
ltoes 0
96
root 7.65045 11.1267 8.84552 -159.337 -55.2405 159.73
lowerback 19.9121 2.52862 -5.64172
upperback 2.54583 2.13084 2.90095
thorax -8.71074 1.16213 5.84977
lowerneck -3.77478 5.50244 -0.11353
upperneck -23.4326 4.5763 -8.40993
head -6.27495 2.18468 -2.80093
rclavicle -1.59028e-014 -2.38542e-014
rhumerus -19.4801 -35.659 -76.2665
rradius 54.1756
rwrist -44.0723
rhand 9.03859 -23.7842
rfingers 7.12502
rthumb 34.2139 -50.5202
lclavicle -1.59028e-014 -2.38542e-014
lhumerus 16.7267 19.0455 54.6439
lradius 128.056
lwrist -31.4161
lhand -47.3044 -38.4478
lfingers 7.12502
lthumb -19.9999 -9.4571
rfemur -60.6043 -16.3132 -11.9456
rtibia 83.9766
rfoot 144.351 8.55462
rtoes -42.4892
lfemur -50.5267 -4.09945 -26.0363
ltibia 73.8447
lfoot 0 0
ltoes 0
97
root 7.64937 11.1302 8.84218 -159.311 -55.2129 159.672
lowerback 19.9181 2.54862 -5.56355
upperback 2.54817 2.17602 2.93178
thorax -8.71644 1.18149 5.82606
lowerneck -3.78554 5.48596 -0.234927
upperneck -23.3898 4.59126 -8.23628
head -6.26882 2.19177 -2.72432
rclavicle 6.36111e-015 -1.27222e-014
rhumerus -19.59 -35.7811 -76.1164
rradius 54.2904
rwrist -44.224
rhand 9.00191 -23.8225
rfingers 7.12502
rthumb 34.1791 -50.5664
lclavicle 6.36111e-015 -1.27222e-014
lhumerus 16.8477 19.1174 54.3176
lradius 128.016
lwrist -31.4142
lhand -47.3453 -38.6521
lfingers 7.12502
lthumb -20.0392 -9.66549
rfemur -60.5408 -16.244 -12.0185
rtibia 83.9246
rfoot 144.166 8.03297
rtoes -41.312
lfemur -50.4389 -4.11491 -26.0507
ltibia 73.8956
lfoot 0 0
ltoes 0
